<?xml version="1.0" encoding="UTF-8"?>
<svg id="Calque_6" xmlns="http://www.w3.org/2000/svg" xmlns:xlink="http://www.w3.org/1999/xlink" version="1.1" viewBox="0 0 196.4 242.9">
  <!-- Generator: Adobe Illustrator 29.2.1, SVG Export Plug-In . SVG Version: 2.1.0 Build 116)  -->
  <defs>
    <style>
      .st0 {
        fill: #564c35;
      }

      .st1 {
        fill: url(#linear-gradient);
      }

      .st2 {
        fill: #655535;
      }
    </style>
    <linearGradient id="linear-gradient" x1="98.2" y1="261.5" x2="98.2" y2="62.3" gradientTransform="translate(0 244) scale(1 -1)" gradientUnits="userSpaceOnUse">
      <stop offset=".2" stop-color="#685339"/>
      <stop offset="1" stop-color="#e7ab40"/>
    </linearGradient>
  </defs>
  <path class="st2" d="M98.2,4.8C46.2,4.8,4.1,88.5,4.1,138.3s42.1,90.1,94.1,90.1,94.1-40.3,94.1-90.1S150.2,4.8,98.2,4.8Z"/>
  <path class="st0" d="M98.2,9.7C44,9.7,0,97.1,0,148.9s44,94,98.2,94,98.2-42.1,98.2-94S152.4,9.7,98.2,9.7ZM98.2,18.5c45.7,0,82.7,74.4,82.7,118.7s-3.3,25.6-9.2,36.6c.2-2.1.4-4.2.4-6.4,0-7.4-1.4-14.5-4-21.2-1-2.3-2.1-4.5-3.4-6.7h0s-1.3-2.6-4-6.2c0,0,0,0,.1,0-2.8-3.7-7.2-8.6-13.4-12.7-8.6-6-19.8-11.2-30.6-16.5-17.3-8.4-33.8-17-37.5-28.4h0c0,.1,0,.2,0,.3,0-.1,0-.2-.1-.3-2.1,8.4,1.1,16.9,7.7,22.2-41.3-16.4-10.9-66.8,23-44.6,7.3,4.9,11.7,13.6,10.1,22.4,0,.1-.6,2-2.2,4.3-.6.8-1.8,1-2.7.6-1.3-.5-1.8-2.1-1.1-3.3,3.6-6.4-2.3-15.1-10.1-14.7-8.8-1.1-16.6,10.6-8.4,17.1h0c16.8,10.1,34.5,19,51.6,28.5,0,0,0,0,0,0,3.6-16.9,3.4-34.9-3.6-50.9-12.6-27.5-52.7-33.7-75.2-14.7-16.4,12.1-19.8,37.8-5.9,53.1,3.6,4.3,7.7,7.3,12,9.8,2.2,1.2,4.3,2.3,6.5,3.4,14,6,34.8,11.3,36.6,31.8,0,0,3.8-5.9,2.6-12.8,8.7,6.6,16.3,14.9,18.9,25.4h0s0,0,0,0c1.7,7.3,1,14.9-3.3,21.9-15,24.5-54.5,25.8-72.1,3.5-6.4-7-7.7-16.7-5.6-25.7,1.3-6.7,6.6-14.1,13.8-14.6,0,0,.1,0,.2,0-12.2,14.5,5,34.5,21.2,24.5,11.8-7.6,13-25.8.8-34h0c-4.4-3.2-15.4-6.4-15.5-6.5-7-2.5-14.4-5.5-20.5-9.9-4.6-3.3-8.4-7.5-10.7-12.8-15.8,20.3-23.8,44.7-22.9,67.1.1,2.7.4,5.3.7,7.9-6.1-11.2-9.6-23.9-9.6-37.5,0-44.2,37-118.7,82.7-118.7h0Z"/>
  <path class="st1" d="M98.2,0C44,0,0,87.3,0,139.2s44,94,98.2,94,98.2-42.1,98.2-94S152.4,0,98.2,0ZM98.2,9.8c52.7,0,82.7,74.4,82.7,118.7s-3.3,25.6-9.2,36.6c.2-2.1.4-4.2.4-6.4,0-7.4-1.4-14.5-4-21.2-1-2.3-2.1-4.5-3.4-6.7h0s-1.3-2.6-4-6.2c0,0,0,0,.1,0-2.8-3.7-7.2-8.6-13.4-12.7-8.6-6-19.8-11.2-30.6-16.6-17.3-8.4-33.8-17-37.5-28.4h0c0,.1,0,.2,0,.3,0-.1,0-.2-.1-.3-2.1,8.4,1.1,16.9,7.7,22.2-41.3-16.4-10.9-66.8,23-44.6,7.3,4.9,11.7,13.6,10.1,22.4,0,.1-.6,2-2.2,4.3-.6.8-1.8,1-2.7.6-1.3-.5-1.8-2.1-1.1-3.3,3.6-6.4-2.3-15.1-10.1-14.7-8.8-1.1-16.6,10.6-8.4,17.1h0c16.8,10.1,34.5,19,51.6,28.5,0,0,0,0,0,0,3.6-16.9,3.4-34.9-3.6-50.9-12.6-27.5-52.7-33.7-75.2-14.7-16.4,12.1-19.8,37.8-5.9,53.1,3.6,4.3,7.7,7.3,12,9.8,2.2,1.2,4.3,2.3,6.5,3.4,14,6,34.8,11.3,36.6,31.8,0,0,3.8-5.9,2.6-12.8,8.7,6.6,16.3,14.9,18.9,25.4h0s0,0,0,0c1.7,7.3,1,14.9-3.3,21.9-15,24.5-54.5,25.8-72.1,3.5-6.4-7-7.7-16.7-5.6-25.7,1.3-6.7,6.6-14.1,13.8-14.6,0,0,.1,0,.2,0-12.2,14.5,5,34.5,21.2,24.5,11.8-7.6,13-25.8.8-34h0c-4.4-3.2-15.4-6.4-15.5-6.5-7-2.5-14.4-5.5-20.5-9.9-4.6-3.3-8.4-7.5-10.7-12.8-15.8,20.3-23.8,44.7-22.9,67.1.1,2.7.4,5.3.7,7.9-6.1-11.2-9.6-23.9-9.6-37.5,0-44.2,32.8-118.7,82.7-118.7Z"/>
</svg>